<?xml version="1.0" standalone="no"?>
<!DOCTYPE svg PUBLIC "-//W3C//DTD SVG 20010904//EN"
 "http://www.w3.org/TR/2001/REC-SVG-20010904/DTD/svg10.dtd">
<svg version="1.0" xmlns="http://www.w3.org/2000/svg"
 width="2048.000000pt" height="614.000000pt" viewBox="0 0 2048.000000 614.000000"
 preserveAspectRatio="xMidYMid meet">

<g transform="translate(0.000000,614.000000) scale(0.100000,-0.100000)"
fill="#045464" stroke="none">
<path d="M1239 4021 c-70 -44 -103 -132 -79 -207 18 -56 46 -92 90 -114 36
-18 60 -20 280 -20 222 0 244 2 280 20 93 48 126 179 67 268 -51 77 -71 82
-350 82 l-243 0 -45 -29z"/>
<path d="M2205 4033 c-46 -24 -66 -45 -86 -88 -37 -81 -13 -178 57 -231 l37
-29 246 -3 c135 -2 256 0 268 3 31 7 91 61 110 99 20 39 20 123 0 161 -20 39
-65 81 -100 94 -17 7 -121 11 -265 11 -197 -1 -242 -4 -267 -17z"/>
<path d="M3155 4036 c-37 -17 -80 -62 -94 -99 -15 -40 -14 -123 3 -155 19 -36
65 -78 99 -91 17 -7 122 -11 265 -11 266 0 280 3 336 73 72 90 30 246 -77 286
-44 17 -494 14 -532 -3z"/>
<path d="M11690 3050 l0 -700 55 0 55 0 0 340 0 341 25 50 c33 63 95 126 151
150 102 45 220 33 283 -30 62 -62 64 -76 68 -483 l5 -368 49 0 49 0 0 373 c0
407 -3 430 -58 517 -19 30 -46 55 -83 75 -51 28 -61 30 -164 30 -106 0 -112
-1 -173 -34 -35 -19 -83 -57 -108 -84 l-44 -49 0 286 0 286 -55 0 -55 0 0
-700z"/>
<path d="M14800 3050 l0 -700 55 0 55 0 0 700 0 700 -55 0 -55 0 0 -700z"/>
<path d="M5284 3710 c-42 -17 -74 -68 -74 -118 0 -115 104 -174 217 -123 93
43 99 177 10 231 -34 21 -114 26 -153 10z"/>
<path d="M17260 3670 c-45 -45 -11 -120 55 -120 44 0 75 29 75 70 0 41 -31 70
-75 70 -22 0 -43 -8 -55 -20z"/>
<path d="M4180 3015 l0 -665 445 0 445 0 0 110 0 110 -310 0 -310 0 0 175 0
175 265 0 265 0 0 110 0 110 -265 0 -265 0 0 155 0 155 310 0 310 0 0 115 0
115 -445 0 -445 0 0 -665z"/>
<path d="M8650 3630 l0 -50 225 0 225 0 0 -615 0 -615 60 0 60 0 0 615 0 615
225 0 225 0 0 50 0 50 -510 0 -510 0 0 -50z"/>
<path d="M3185 3376 c-65 -30 -115 -109 -115 -180 1 -40 31 -105 61 -132 13
-12 109 -70 213 -130 173 -99 194 -108 240 -108 127 0 219 114 187 232 -19 69
-60 103 -258 218 -168 96 -194 108 -243 111 -33 2 -67 -2 -85 -11z"/>
<path d="M5902 3365 c-123 -38 -217 -160 -248 -322 -52 -272 49 -534 231 -602
81 -31 194 -29 260 4 28 13 60 32 73 41 l22 16 0 -48 c-1 -109 -68 -181 -178
-191 -79 -7 -155 16 -211 63 l-43 38 -19 -25 c-10 -13 -35 -48 -55 -77 l-37
-53 22 -23 c30 -31 122 -80 190 -100 67 -20 217 -21 286 -2 135 36 239 128
275 243 19 61 20 92 20 544 l0 479 -115 0 -115 0 0 -36 0 -36 -42 36 c-23 20
-65 43 -92 51 -61 18 -166 18 -224 0z m256 -200 c20 -9 47 -26 59 -37 22 -21
23 -26 23 -228 l0 -206 -27 -26 c-42 -39 -66 -48 -128 -48 -66 0 -105 18 -138
62 -42 58 -52 97 -52 208 0 123 14 177 58 227 54 62 129 79 205 48z"/>
<path d="M6990 3353 c-84 -23 -144 -59 -202 -121 -92 -99 -138 -228 -138 -394
0 -154 27 -247 100 -344 136 -180 435 -233 663 -118 62 32 141 109 130 128 -4
7 -34 41 -65 76 l-57 63 -38 -33 c-77 -68 -190 -94 -286 -66 -69 20 -142 84
-162 141 l-13 40 325 3 325 2 -4 143 c-6 167 -26 243 -87 328 -44 61 -121 120
-191 145 -69 24 -222 28 -300 7z m207 -214 c64 -24 94 -72 108 -171 l6 -48
-195 0 -195 0 6 33 c9 50 42 123 66 145 53 49 137 66 204 41z"/>
<path d="M8177 3360 c-54 -14 -110 -44 -150 -83 l-36 -33 -7 53 -6 53 -124 0
-124 0 0 -500 0 -500 135 0 135 0 0 359 0 358 25 27 c50 54 155 73 230 42 68
-29 70 -39 73 -433 l3 -353 130 0 130 0 -3 393 c-3 376 -4 394 -25 445 -50
122 -128 174 -267 178 -45 2 -98 -1 -119 -6z"/>
<path d="M5220 2850 l0 -500 135 0 135 0 0 500 0 500 -135 0 -135 0 0 -500z"/>
<path d="M10003 3331 c-139 -52 -240 -172 -278 -333 -19 -82 -19 -248 0 -321
8 -31 28 -83 44 -115 127 -250 485 -309 682 -112 l52 52 -29 24 c-16 13 -33
23 -38 24 -4 0 -30 -20 -57 -44 -136 -123 -364 -104 -473 38 -45 60 -78 143
-84 212 l-5 64 352 0 351 0 0 73 c-1 204 -86 366 -227 429 -69 31 -219 35
-290 9z m220 -87 c95 -32 174 -145 184 -265 l6 -59 -297 0 c-340 0 -312 -10
-275 102 60 185 220 277 382 222z"/>
<path d="M10959 3332 c-116 -39 -199 -123 -247 -251 -34 -89 -43 -320 -17
-421 24 -93 70 -174 132 -230 146 -134 392 -130 545 8 45 40 98 141 98 185 0
26 -2 27 -49 27 l-49 0 -11 -46 c-13 -52 -74 -124 -126 -148 -69 -33 -139 -40
-213 -22 -77 19 -123 51 -169 120 -39 57 -50 94 -63 203 -19 159 13 313 84
406 62 82 206 119 317 82 73 -25 142 -94 163 -166 9 -29 16 -59 16 -66 0 -9
15 -13 50 -13 l50 0 0 35 c0 100 -92 231 -199 282 -76 36 -227 43 -312 15z"/>
<path d="M13007 3326 c-67 -28 -85 -41 -144 -105 l-43 -46 0 83 0 82 -50 0
-50 0 0 -495 0 -495 50 0 50 0 0 336 0 335 27 55 c52 108 166 184 273 184 57
0 133 -27 162 -57 61 -64 63 -73 66 -480 l3 -373 55 0 54 0 0 348 c0 367 -7
438 -49 520 -45 87 -136 132 -270 132 -57 0 -91 -7 -134 -24z"/>
<path d="M13985 3333 c-200 -72 -305 -240 -305 -488 0 -173 40 -285 138 -387
189 -198 529 -156 670 82 11 19 30 64 43 100 30 87 33 293 5 385 -43 142 -109
226 -223 282 -71 35 -84 38 -177 41 -77 2 -113 -2 -151 -15z m271 -106 c122
-62 193 -203 194 -385 0 -105 -24 -200 -70 -270 -67 -104 -141 -145 -261 -145
-63 -1 -86 4 -132 26 -127 63 -197 196 -197 379 0 161 31 250 121 340 68 69
122 89 224 84 51 -2 84 -10 121 -29z"/>
<path d="M15455 3336 c-210 -67 -326 -264 -311 -531 8 -160 43 -251 130 -343
179 -189 506 -168 650 42 61 87 87 174 93 301 12 274 -100 469 -306 529 -65
19 -199 20 -256 2z m223 -91 c34 -10 69 -32 104 -64 89 -81 128 -184 128 -336
0 -193 -68 -328 -197 -392 -46 -22 -69 -27 -132 -26 -119 0 -195 43 -262 146
-87 134 -92 372 -12 520 36 65 113 133 172 151 61 19 136 19 199 1z"/>
<path d="M16480 3341 c-81 -26 -176 -105 -213 -177 -43 -84 -61 -176 -62 -314
0 -81 6 -157 14 -190 34 -140 115 -249 219 -298 49 -23 70 -27 147 -26 111 0
182 26 254 90 l49 44 -5 -42 c-13 -111 -65 -197 -147 -241 -34 -18 -57 -22
-136 -22 -111 0 -157 18 -239 91 l-49 44 -27 -36 -27 -36 38 -39 c22 -22 72
-57 113 -77 67 -33 83 -37 171 -40 203 -8 333 74 392 248 21 63 22 81 26 538
l3 472 -55 0 -56 0 0 -65 0 -64 -47 47 c-73 72 -129 95 -243 98 -52 2 -106 0
-120 -5z m200 -92 c64 -14 133 -64 174 -127 l36 -55 0 -224 c0 -249 -1 -256
-69 -326 -56 -59 -103 -80 -198 -85 -75 -4 -88 -2 -139 23 -114 56 -168 178
-169 380 0 170 28 269 99 343 67 72 156 96 266 71z"/>
<path d="M17913 3336 c-138 -45 -241 -160 -289 -321 -21 -74 -24 -256 -5 -335
58 -237 264 -378 497 -342 98 16 168 50 229 112 l50 52 -33 27 -32 28 -42 -40
c-66 -63 -136 -90 -233 -90 -69 -1 -90 3 -137 26 -99 49 -175 154 -197 272
-20 106 -59 95 339 95 l350 0 0 93 c0 197 -70 331 -207 399 -57 28 -78 33
-157 35 -57 2 -107 -2 -133 -11z m233 -104 c74 -38 132 -121 153 -220 21 -102
52 -92 -289 -92 l-299 0 6 33 c27 144 108 251 220 293 52 20 157 13 209 -14z"/>
<path d="M18819 3335 c-195 -62 -271 -267 -148 -400 49 -53 122 -86 272 -125
132 -33 203 -66 240 -110 77 -91 20 -223 -111 -261 -72 -21 -188 -16 -250 11
-65 28 -120 89 -128 142 l-7 38 -55 0 -55 0 7 -47 c23 -169 228 -279 457 -245
207 30 320 163 279 330 -26 109 -114 169 -330 227 -208 55 -259 91 -267 185
-12 131 162 216 336 164 71 -21 138 -86 147 -144 l7 -40 53 0 54 0 0 33 c0 44
-40 125 -81 164 -19 18 -61 44 -94 60 -52 24 -74 28 -170 30 -76 2 -124 -2
-156 -12z"/>
<path d="M17260 2845 l0 -495 55 0 55 0 0 495 0 495 -55 0 -55 0 0 -495z"/>
<path d="M1290 3288 c-137 -39 -182 -197 -87 -305 52 -60 70 -63 329 -63 211
0 235 2 273 20 45 22 75 57 93 109 35 100 -25 212 -126 241 -47 13 -435 12
-482 -2z"/>
<path d="M2227 3286 c-117 -43 -162 -182 -93 -286 48 -73 75 -80 344 -80 249
0 264 3 320 54 89 80 69 236 -38 296 -44 24 -50 25 -270 27 -173 2 -234 0
-263 -11z"/>
<path d="M3167 2609 c-20 -11 -49 -38 -65 -61 -22 -34 -27 -53 -27 -104 0 -98
26 -127 215 -236 226 -131 242 -138 301 -138 188 0 253 245 92 348 -26 17
-120 71 -207 121 -149 85 -163 91 -215 91 -36 -1 -70 -8 -94 -21z"/>
<path d="M1265 2521 c-65 -29 -115 -104 -115 -171 0 -34 22 -91 47 -121 53
-63 82 -69 333 -69 244 0 277 6 327 61 89 97 58 245 -62 300 -35 16 -67 19
-265 19 -197 0 -230 -3 -265 -19z"/>
<path d="M2225 2528 c-16 -6 -45 -25 -64 -42 -82 -77 -82 -196 0 -272 54 -49
81 -54 323 -54 248 0 280 7 329 71 78 104 42 245 -75 293 -30 13 -80 16 -260
15 -127 0 -236 -5 -253 -11z"/>
</g>
</svg>
